<?xml version="1.0" standalone="no"?>
<!DOCTYPE svg PUBLIC "-//W3C//DTD SVG 20010904//EN"
 "http://www.w3.org/TR/2001/REC-SVG-20010904/DTD/svg10.dtd">
<svg version="1.0" xmlns="http://www.w3.org/2000/svg"
 width="2001.000000pt" height="2001.000000pt" viewBox="0 0 2001.000000 2001.000000"
 preserveAspectRatio="xMidYMid meet">
<metadata>
Created by potrace 1.14, written by Peter Selinger 2001-2017
</metadata>
<g transform="translate(0.000000,2001.000000) scale(0.100000,-0.100000)"
fill="#000000" stroke="none">
<path d="M622 16039 c-320 -54 -571 -316 -612 -640 -14 -117 -14 -4252 1
-4369 27 -219 142 -405 323 -524 91 -60 183 -99 270 -115 41 -8 429 -11 1215
-11 l1156 0 1120 -1119 c1216 -1215 1188 -1189 1356 -1245 160 -54 359 -46
522 20 131 52 282 183 355 306 41 69 77 172 91 258 7 42 11 372 11 922 l0 858
2908 2 2907 3 80 28 c116 41 210 100 295 186 80 81 126 151 167 253 55 136 54
43 51 2403 l-3 2180 -23 75 c-79 254 -269 441 -527 517 -57 17 -327 18 -5835
19 -3282 1 -5798 -2 -5828 -7z"/>
<path d="M14212 12029 c-254 -39 -484 -218 -578 -451 -53 -130 -54 -141 -54
-1074 l0 -864 -2892 -3 c-3248 -3 -2936 5 -3104 -78 -153 -75 -270 -195 -345
-354 -75 -159 -70 15 -67 -2440 l3 -2200 23 -70 c87 -258 279 -442 530 -506
74 -19 178 -19 5861 -19 5059 0 5794 2 5848 15 243 57 448 247 531 492 l27 78
3 2220 c3 2039 1 2226 -14 2290 -61 258 -260 466 -524 547 l-75 22 -1180 4
-1180 3 -1120 1118 c-616 615 -1141 1133 -1168 1150 -65 44 -160 87 -231 105
-76 20 -215 27 -294 15z"/>
</g>
</svg>
